<svg xmlns="http://www.w3.org/2000/svg" viewBox="0 0 880 220" width="880" height="220" role="img" aria-label="Anamata">
  <defs>
    <style>@import url('https://fonts.googleapis.com/css2?family=Fraunces:opsz,wght@9..144,600&amp;display=swap'); .wmtext{font-family:'Fraunces',Georgia,serif; font-weight:600;}</style>
    <linearGradient id="wm" x1="0" y1="0" x2="1" y2="0"><stop offset="0" stop-color="#F2EDE3"/><stop offset="0.42" stop-color="#F2EDE3"/><stop offset="0.74" stop-color="#E3C06A"/><stop offset="1" stop-color="#C9A24B"/></linearGradient>
    <linearGradient id="koruGrad" x1="0" y1="1" x2="1" y2="0"><stop offset="0" stop-color="#1E5A48"/><stop offset="0.5" stop-color="#C9A24B"/><stop offset="1" stop-color="#E3C06A"/></linearGradient>
  </defs>
  <g transform="translate(36,40) scale(1.42)"><path d="M 36.62 67.89 L 35.54 66.07 L 34.67 64.44 L 33.90 62.78 L 33.22 61.09 L 32.65 59.36 L 32.17 57.62 L 31.79 55.86 L 31.52 54.09 L 31.34 52.31 L 31.26 50.54 L 31.29 48.77 L 31.41 47.02 L 31.63 45.29 L 31.95 43.58 L 32.36 41.90 L 32.86 40.25 L 33.45 38.64 L 34.12 37.08 L 34.88 35.57 L 35.72 34.11 L 36.63 32.71 L 37.62 31.37 L 38.67 30.10 L 39.78 28.90 L 40.96 27.76 L 42.19 26.71 L 43.46 25.73 L 44.79 24.83 L 46.15 24.01 L 47.54 23.28 L 48.97 22.63 L 50.42 22.07 L 51.89 21.60 L 53.37 21.21 L 54.86 20.91 L 56.36 20.69 L 57.85 20.57 L 59.33 20.53 L 60.81 20.57 L 62.26 20.70 L 63.70 20.91 L 65.10 21.20 L 66.48 21.56 L 67.82 22.00 L 69.13 22.51 L 70.39 23.10 L 71.60 23.74 L 72.76 24.45 L 73.87 25.22 L 74.92 26.04 L 75.92 26.92 L 76.85 27.84 L 77.71 28.80 L 78.52 29.81 L 79.25 30.84 L 79.91 31.91 L 80.51 33.00 L 81.03 34.11 L 81.48 35.24 L 81.86 36.38 L 82.17 37.52 L 82.41 38.67 L 82.57 39.82 L 82.67 40.96 L 82.70 42.09 L 82.66 43.20 L 82.55 44.30 L 82.38 45.37 L 82.15 46.42 L 81.87 47.43 L 81.52 48.42 L 81.12 49.36 L 80.67 50.27 L 80.18 51.14 L 79.64 51.96 L 79.06 52.73 L 78.44 53.45 L 77.79 54.12 L 77.11 54.74 L 76.40 55.31 L 75.67 55.82 L 74.93 56.28 L 74.17 56.68 L 73.40 57.02 L 72.62 57.31 L 71.84 57.54 L 71.07 57.72 L 70.30 57.84 L 69.53 57.91 L 68.79 57.93 L 68.05 57.90 L 67.34 57.82 L 66.65 57.69 L 65.98 57.52 L 65.35 57.31 L 64.74 57.06 L 64.17 56.77 L 63.63 56.45 L 63.13 56.10 L 62.67 55.72 L 62.67 55.72 L 63.13 56.10 L 63.63 56.45 L 64.16 56.78 L 64.73 57.08 L 65.33 57.34 L 65.97 57.57 L 66.63 57.76 L 67.32 57.91 L 68.04 58.02 L 68.78 58.09 L 69.54 58.10 L 70.32 58.07 L 71.11 57.99 L 71.92 57.85 L 72.73 57.66 L 73.54 57.41 L 74.36 57.11 L 75.18 56.75 L 75.98 56.34 L 76.78 55.86 L 77.57 55.33 L 78.33 54.73 L 79.08 54.08 L 79.79 53.37 L 80.48 52.61 L 81.13 51.79 L 81.75 50.91 L 82.32 49.99 L 82.85 49.01 L 83.33 47.98 L 83.76 46.91 L 84.12 45.80 L 84.43 44.64 L 84.68 43.45 L 84.85 42.22 L 84.96 40.97 L 85.00 39.69 L 84.96 38.38 L 84.84 37.06 L 84.65 35.73 L 84.37 34.38 L 84.01 33.04 L 83.57 31.69 L 83.05 30.35 L 82.43 29.03 L 81.74 27.71 L 80.95 26.42 L 80.08 25.16 L 79.13 23.93 L 78.09 22.74 L 76.97 21.60 L 75.77 20.50 L 74.49 19.46 L 73.14 18.48 L 71.71 17.56 L 70.21 16.71 L 68.64 15.94 L 67.01 15.25 L 65.32 14.64 L 63.57 14.12 L 61.77 13.69 L 59.93 13.37 L 58.05 13.14 L 56.13 13.02 L 54.18 13.00 L 52.21 13.09 L 50.22 13.30 L 48.22 13.63 L 46.22 14.06 L 44.22 14.62 L 42.23 15.30 L 40.25 16.10 L 38.30 17.01 L 36.38 18.05 L 34.50 19.21 L 32.66 20.48 L 30.88 21.87 L 29.15 23.38 L 27.50 25.00 L 25.91 26.73 L 24.41 28.56 L 23.00 30.50 L 21.68 32.54 L 20.46 34.67 L 19.35 36.89 L 18.35 39.20 L 17.47 41.58 L 16.72 44.04 L 16.10 46.56 L 15.61 49.14 L 15.26 51.77 L 15.06 54.44 L 15.00 57.15 L 15.10 59.89 L 15.35 62.65 L 15.75 65.42 L 16.31 68.19 L 17.04 70.95 L 17.92 73.70 L 18.85 76.18 Z" fill="url(#koruGrad)" stroke="url(#koruGrad)" stroke-width="0.5" stroke-linejoin="round"/><circle cx="27.73" cy="72.04" r="10.79" fill="url(#koruGrad)"/><circle cx="49.52" cy="61.14" r="4.07" fill="#E3C06A"/><circle cx="49.52" cy="82.93" r="4.07" fill="#E3C06A"/></g>
  <text class="wmtext" x="212" y="138" font-size="120" letter-spacing="1.5" fill="url(#wm)">Anamata</text>
</svg>
